<svg width="72" height="48" viewBox="0 0 72 48" fill="none" xmlns="http://www.w3.org/2000/svg">
<path fill-rule="evenodd" clip-rule="evenodd" d="M68.1588 34.694C69.3894 36.0829 70.0542 37.8398 70.0542 39.6818C70.0542 39.8312 70.0507 39.9804 70.0423 40.1298C69.9242 42.1401 69.0317 43.9839 67.5306 45.3207L67.468 45.378C65.9767 46.7061 64.0553 47.3797 62.0608 47.2738C60.0663 47.1697 58.2265 46.2964 56.8828 44.819L34.5126 20.2149C33.3755 18.9649 32.7507 17.3469 32.7507 15.6593V6.76697L5.23132 37.3815C4.11531 38.6228 4.19682 40.5638 5.41544 41.7079C6.02967 42.2843 6.83155 42.5811 7.67348 42.5429C8.51541 42.5047 9.28635 42.1367 9.84717 41.5082L26.7898 22.4666C27.6057 21.55 29.0084 21.4684 29.9249 22.2843C30.8413 23.1003 30.9228 24.5031 30.1069 25.4198L13.1643 44.4614C11.8016 45.9943 9.92167 46.8884 7.87307 46.9804C5.82517 47.0725 3.87215 46.3502 2.37804 44.9457C0.93172 43.5898 0.0897958 41.7513 0.00686787 39.7704C-0.0767628 37.7895 0.605624 35.8867 1.93177 34.4127L31.7697 1.21495C32.6376 0.249608 33.9813 -0.0750054 35.1943 0.390234C36.408 0.855544 37.1909 1.99615 37.1909 3.29475V15.6575C37.1909 16.2392 37.406 16.7947 37.7967 17.2254L60.1668 41.8294C61.3039 43.0776 63.2535 43.1818 64.5135 42.0603L64.5761 42.0047C65.1938 41.4561 65.56 40.6992 65.6085 39.8728C65.6576 39.0481 65.3815 38.253 64.8312 37.635L64.8206 37.6228L41.1883 10.3052C40.3864 9.37807 40.4869 7.97533 41.4139 7.17324C42.3408 6.36941 43.7429 6.47187 44.5448 7.39891L68.1588 34.694ZM71.2082 15.6883C71.2342 15.9209 71.2461 16.1518 71.2461 16.381L71.2476 16.3792C71.2476 18.1448 70.4949 19.8462 69.1596 21.032C66.598 23.3097 62.6589 23.0754 60.3833 20.5129L51.354 10.3463C49.077 7.78382 49.311 3.8446 51.8734 1.56858C53.1145 0.466135 54.7112 -0.0876552 56.369 0.011296C58.0262 0.110247 59.547 0.848094 60.649 2.08941L69.679 12.256C70.5364 13.2213 71.0641 14.4088 71.2082 15.6883ZM54.2319 4.22656C53.6401 4.75084 53.3379 5.48348 53.3379 6.21957V6.22133C53.3379 6.84976 53.56 7.48169 54.0098 7.98868L63.0391 18.1553C64.0146 19.2525 65.7019 19.3532 66.8011 18.3775C67.4462 17.8028 67.7765 16.9452 67.6788 16.0841C67.6163 15.5372 67.3907 15.0286 67.0231 14.6154L57.9931 4.44878C57.5216 3.91579 56.8687 3.59983 56.1589 3.55815C55.4491 3.51648 54.7646 3.7543 54.2319 4.22656Z" fill="#9747FF"/>
</svg>
